<svg width="350" height="136" viewBox="0 0 350 136" fill="none" xmlns="http://www.w3.org/2000/svg">
<rect x="0.75" y="0.75" width="348.5" height="134.5" rx="15.25" fill="white"/>
<rect x="0.75" y="0.75" width="348.5" height="134.5" rx="15.25" stroke="#E5E5E5" stroke-width="1.5"/>
<path d="M103.395 50.4611H98.2205C97.4258 50.4611 96.7816 51.1054 96.7816 51.9001V84.111C96.7816 84.9057 97.4258 85.5499 98.2205 85.5499H103.395C104.19 85.5499 104.834 84.9057 104.834 84.111V51.9001C104.834 51.1054 104.19 50.4611 103.395 50.4611Z" fill="black"/>
<path d="M90.8844 77.4971H76.9347V51.9C76.9354 51.7108 76.8987 51.5233 76.8266 51.3484C76.7545 51.1735 76.6486 51.0146 76.5148 50.8809C76.3811 50.7471 76.2221 50.6411 76.0472 50.5691C75.8723 50.497 75.6849 50.4603 75.4957 50.461H70.3209C69.9393 50.461 69.5733 50.6126 69.3034 50.8825C69.0336 51.1523 68.882 51.5183 68.882 51.9V84.1108C68.882 84.4925 69.0336 84.8585 69.3034 85.1283C69.5733 85.3982 69.9393 85.5498 70.3209 85.5498H90.8844C91.266 85.5498 91.632 85.3982 91.9019 85.1283C92.1718 84.8585 92.3234 84.4925 92.3234 84.1108V78.936C92.3234 78.5544 92.1718 78.1884 91.9019 77.9185C91.632 77.6487 91.266 77.4971 90.8844 77.4971ZM167.822 58.5137C168.201 58.5137 168.565 58.3644 168.834 58.098C169.104 57.8317 169.257 57.4699 169.261 57.0911V51.9C169.261 51.5183 169.11 51.1523 168.84 50.8825C168.57 50.6126 168.204 50.461 167.822 50.461H147.259C146.877 50.461 146.511 50.6126 146.241 50.8825C145.972 51.1523 145.82 51.5183 145.82 51.9V84.1108C145.82 84.4925 145.972 84.8585 146.241 85.1283C146.511 85.3982 146.877 85.5498 147.259 85.5498H167.822C168.204 85.5498 168.57 85.3982 168.84 85.1283C169.11 84.8585 169.261 84.4925 169.261 84.1108V78.936C169.261 78.5544 169.11 78.1884 168.84 77.9185C168.57 77.6487 168.204 77.4971 167.822 77.4971H153.873V72.029H167.822C168.204 72.029 168.57 71.8774 168.84 71.6076C169.11 71.3377 169.261 70.9717 169.261 70.5901V65.4153C169.261 65.0336 169.11 64.6676 168.84 64.3978C168.57 64.1279 168.204 63.9763 167.822 63.9763H153.873V58.5137H167.822ZM138.929 50.461H133.749C133.56 50.461 133.373 50.4983 133.199 50.5706C133.025 50.643 132.867 50.7491 132.733 50.8828C132.6 51.0165 132.495 51.1751 132.423 51.3497C132.351 51.5242 132.315 51.7112 132.315 51.9V70.5358L118.74 51.1669C118.558 50.9229 118.316 50.7299 118.037 50.6064C117.758 50.4828 117.453 50.4327 117.149 50.461C117.068 50.4529 116.986 50.4529 116.905 50.461H111.736C111.354 50.461 110.988 50.6126 110.718 50.8825C110.448 51.1523 110.297 51.5183 110.297 51.9V84.1108C110.297 84.4925 110.448 84.8585 110.718 85.1283C110.988 85.3982 111.354 85.5498 111.736 85.5498H116.916C117.298 85.5498 117.664 85.3982 117.933 85.1283C118.203 84.8585 118.355 84.4925 118.355 84.1108V64.6442L132.473 84.8385C132.522 84.9099 132.576 84.9771 132.636 85.0394C132.76 85.187 132.912 85.3083 133.084 85.396C133.255 85.4837 133.443 85.536 133.635 85.5498H138.929C139.311 85.5498 139.677 85.3982 139.947 85.1283C140.217 84.8585 140.368 84.4925 140.368 84.1108V51.9C140.368 51.5183 140.217 51.1523 139.947 50.8825C139.677 50.6126 139.311 50.461 138.929 50.461Z" fill="black"/>
<path d="M278.03 37H186.377C184.392 37 182.782 38.6094 182.782 40.5947V95.4053C182.782 97.3906 184.392 99 186.377 99H278.03C280.015 99 281.625 97.3906 281.625 95.4053V40.5947C281.625 38.6094 280.015 37 278.03 37Z" fill="#08BF5B"/>
<path d="M218.419 61.1799C218.417 62.4873 218.154 63.7811 217.646 64.9858C217.138 66.1906 216.396 67.2821 215.462 68.197C214.528 69.1118 213.421 69.8315 212.206 70.3141C210.991 70.7968 209.692 71.0328 208.385 71.0083H204.09V79.0501C204.09 79.3065 203.988 79.5523 203.806 79.7336C203.625 79.9148 203.379 80.0167 203.123 80.0167H198.497C198.24 80.0167 197.994 79.9148 197.813 79.7336C197.632 79.5523 197.53 79.3065 197.53 79.0501V52.3127C197.532 52.0573 197.634 51.8128 197.815 51.6328C197.996 51.4527 198.241 51.3516 198.497 51.3516H208.385C209.692 51.3271 210.991 51.563 212.206 52.0457C213.421 52.5284 214.528 53.2481 215.462 54.1629C216.396 55.0777 217.138 56.1693 217.646 57.374C218.154 58.5788 218.417 59.8725 218.419 61.1799ZM211.865 61.1799C211.89 60.7065 211.819 60.233 211.656 59.7879C211.492 59.3429 211.24 58.9357 210.915 58.591C210.589 58.2463 210.197 57.9712 209.762 57.7825C209.327 57.5937 208.859 57.4952 208.385 57.4929H204.09V64.8669H208.39C208.864 64.8631 209.331 64.7636 209.765 64.5742C210.199 64.3849 210.59 64.1097 210.915 63.7652C211.239 63.4207 211.491 63.0141 211.654 62.5698C211.818 62.1255 211.89 61.6527 211.865 61.1799ZM242.746 60.0505V79.5117C242.746 79.6456 242.693 79.7741 242.598 79.8688C242.503 79.9635 242.375 80.0167 242.241 80.0167H237.115C236.981 80.0167 236.852 79.9637 236.756 79.8691C236.66 79.7745 236.606 79.6461 236.605 79.5117V78.0944C235.252 79.6474 233.249 80.5923 230.501 80.5923C225.136 80.5923 220.727 75.879 220.727 69.7811C220.727 63.6832 225.147 58.9645 230.501 58.9645C233.249 58.9645 235.252 59.9093 236.605 61.4677V60.0505C236.605 59.9151 236.658 59.7853 236.754 59.6896C236.85 59.5938 236.98 59.5401 237.115 59.5401H242.241C242.308 59.5401 242.374 59.5533 242.435 59.579C242.497 59.6047 242.553 59.6424 242.6 59.6899C242.647 59.7374 242.684 59.7937 242.709 59.8556C242.734 59.9175 242.747 59.9837 242.746 60.0505ZM236.605 69.7811C236.605 66.7077 234.557 64.78 231.718 64.78C228.878 64.78 226.83 66.7077 226.83 69.7811C226.83 72.8545 228.878 74.7767 231.718 74.7767C234.557 74.7767 236.605 72.8382 236.605 69.7811ZM263.19 60.0722L258.477 71.9477L253.59 60.0668C253.529 59.9079 253.422 59.771 253.283 59.6741C253.143 59.5772 252.978 59.5248 252.808 59.5238H247.579C247.495 59.5235 247.413 59.544 247.34 59.5832C247.266 59.6224 247.203 59.6793 247.157 59.7486C247.111 59.818 247.082 59.8977 247.075 59.9807C247.067 60.0637 247.079 60.1474 247.112 60.2242L255.257 80.0493L252.297 87.5155C252.266 87.5926 252.254 87.6761 252.263 87.7588C252.272 87.8415 252.301 87.9207 252.348 87.9895C252.394 88.0582 252.457 88.1144 252.531 88.153C252.605 88.1915 252.687 88.2113 252.77 88.2106H257.999C258.169 88.2092 258.335 88.1567 258.476 88.0599C258.616 87.9631 258.724 87.8264 258.786 87.6676L269.684 60.208C269.714 60.1309 269.725 60.0477 269.716 59.9655C269.706 59.8834 269.677 59.8048 269.631 59.7364C269.584 59.668 269.522 59.612 269.449 59.573C269.376 59.5341 269.294 59.5135 269.212 59.5129H263.983C263.809 59.5145 263.641 59.5689 263.499 59.6688C263.357 59.7687 263.25 59.9094 263.19 60.0722Z" fill="white"/>
</svg>
