<svg width="240" height="80" viewBox="0 0 240 80" fill="none" xmlns="http://www.w3.org/2000/svg">
<rect x="0.5" y="0.5" width="239" height="79" rx="15.5" fill="white"/>
<rect x="0.5" y="0.5" width="239" height="79" rx="15.5" stroke="#E4E9F1"/>
<rect x="59" y="25" width="30" height="30" rx="6.83824" fill="#140064"/>
<path d="M79.1594 34.0484L74.013 37.9803L68.8667 34.0484L65.397 31.3971V35.6365V48.1618H68.8667V38.326L74.013 42.317L79.1594 38.326V48.1618H82.6273V35.6365V31.3971L79.1594 34.0484Z" fill="#BCF100"/>
<path d="M113.662 29.6324H108.581L100.557 38.9346V29.6324H96.5V49.9265H100.557V40.6005L108.846 49.9265H113.926L104.908 39.7794L113.662 29.6324Z" fill="#140064"/>
<path d="M180.544 49.9265L174.49 42.9068L180.364 35.8872H176.016L170.896 41.9612V29.6324H166.868V49.9265H170.896V43.8376L176.113 49.9265H180.544Z" fill="#140064"/>
<path d="M123.563 35.3913C121.878 35.3913 120.44 36.1227 119.258 37.1264V29.6324H115.25V42.9831C115.25 47.0041 117.897 50.3676 122.86 50.3676C127.327 50.3676 130.471 47.2617 130.471 42.9091C130.471 38.7875 127.765 35.3913 123.563 35.3913ZM122.86 46.7198C121.869 46.7164 120.918 46.3255 120.207 45.6294C119.497 44.9334 119.083 43.9867 119.052 42.989C119.052 42.9535 119.052 42.918 119.052 42.8825C119.052 42.1212 119.276 41.377 119.696 40.744C120.117 40.111 120.714 39.6176 121.412 39.3263C122.111 39.0349 122.879 38.9587 123.621 39.1072C124.362 39.2557 125.043 39.6223 125.578 40.1607C126.113 40.699 126.477 41.3848 126.624 42.1315C126.772 42.8782 126.696 43.6521 126.407 44.3555C126.117 45.0588 125.627 45.66 124.999 46.0829C124.37 46.5059 123.631 46.7316 122.875 46.7316L122.86 46.7198Z" fill="#140064"/>
<path d="M159.057 35.3681C157.327 35.3473 155.654 35.9846 154.378 37.1508V35.8108H150.323V49.9265H154.378V42.0145C154.378 41.2225 154.693 40.4631 155.254 39.9031C155.815 39.3431 156.576 39.0285 157.369 39.0285C158.162 39.0285 158.923 39.3431 159.484 39.9031C160.045 40.4631 160.36 41.2225 160.36 42.0145V49.9265H164.441V40.8855C164.441 40.829 164.441 40.7755 164.441 40.722C164.43 39.3019 163.859 37.9433 162.851 36.941C161.843 35.9387 160.479 35.3736 159.057 35.3681Z" fill="#140064"/>
<path d="M140.285 35.3676C135.688 35.3676 132.456 38.4773 132.456 42.838C132.456 46.9615 135.239 50.3676 139.564 50.3676C140.506 50.3512 141.432 50.1253 142.274 49.7066C143.116 49.2879 143.852 48.6871 144.427 47.9487V49.8933H148.118V42.8469H148.085L148.118 42.7669C148.118 38.7441 145.4 35.3676 140.285 35.3676ZM140.372 46.6769C139.602 46.6769 138.85 46.4509 138.21 46.0275C137.571 45.604 137.072 45.0021 136.777 44.2979C136.483 43.5938 136.406 42.8189 136.556 42.0713C136.706 41.3238 137.077 40.6371 137.621 40.0982C138.165 39.5592 138.858 39.1922 139.613 39.0435C140.368 38.8948 141.15 38.9711 141.861 39.2628C142.572 39.5545 143.18 40.0484 143.607 40.6821C144.035 41.3159 144.263 42.061 144.263 42.8232C144.264 43.3293 144.164 43.8305 143.969 44.2984C143.774 44.7663 143.488 45.1915 143.127 45.5499C142.767 45.9083 142.338 46.1929 141.866 46.3872C141.395 46.5816 140.889 46.6821 140.378 46.6829L140.372 46.6769Z" fill="#140064"/>
</svg>
